<?xml version="1.0" standalone="no"?>
<!DOCTYPE svg PUBLIC "-//W3C//DTD SVG 20010904//EN"
 "http://www.w3.org/TR/2001/REC-SVG-20010904/DTD/svg10.dtd">
<svg version="1.0" xmlns="http://www.w3.org/2000/svg"
 width="1753.000000pt" height="1753.000000pt" viewBox="0 0 1753.000000 1753.000000"
 preserveAspectRatio="xMidYMid meet">
<metadata>
Created by potrace 1.14, written by Peter Selinger 2001-2017
</metadata>
<g transform="translate(0.000000,1753.000000) scale(0.100000,-0.100000)"
fill="#000000" stroke="none">
<path d="M5926 13523 c-1 -1 -88 -3 -193 -3 -165 -1 -193 -4 -206 -18 -12 -14
-17 -61 -21 -232 -19 -656 -26 -995 -26 -1256 l0 -291 -72 -7 c-121 -12 -340
-70 -378 -101 -14 -11 -44 -24 -55 -25 -3 0 -11 -4 -18 -10 -6 -6 -33 -25 -58
-43 -102 -71 -137 -102 -199 -176 -92 -110 -133 -139 -195 -141 -28 -1 -79 3
-115 9 -60 9 -163 21 -330 39 -36 4 -110 4 -165 1 -55 -4 -140 -9 -190 -12
-94 -5 -265 -32 -300 -47 -11 -5 -56 -18 -100 -30 -44 -12 -100 -30 -125 -42
-123 -57 -171 -82 -182 -95 -6 -8 -25 -21 -42 -30 -86 -44 -306 -299 -306
-354 0 -17 -79 -118 -105 -135 -14 -9 -65 -28 -113 -41 -94 -27 -201 -74 -243
-107 -15 -12 -44 -34 -64 -51 -39 -31 -115 -127 -115 -145 0 -5 -4 -10 -9 -10
-5 0 -18 -15 -29 -34 -24 -40 -70 -53 -134 -35 -46 12 -65 15 -144 25 -73 9
-198 -30 -244 -76 -28 -28 -67 -35 -98 -19 -15 8 -57 33 -94 56 -56 36 -106
62 -128 68 -3 0 -16 7 -28 14 -99 55 -309 82 -427 55 -172 -40 -249 -131 -269
-321 -4 -35 -15 -53 -57 -93 -23 -22 -85 -140 -73 -140 3 0 1 -8 -5 -17 -5
-10 -12 -51 -15 -92 -4 -41 -9 -77 -11 -81 -4 -7 -12 -86 -20 -205 -3 -44 -9
-105 -14 -135 -6 -31 -10 -483 -11 -1045 -2 -1267 -1 -1428 11 -1467 6 -18 13
-46 15 -63 3 -16 7 -40 9 -52 2 -13 6 -26 9 -31 15 -24 23 -158 11 -171 -2 -2
0 -12 6 -23 10 -19 14 -115 6 -153 -3 -11 -7 -119 -11 -240 -3 -121 -9 -324
-12 -450 -5 -189 -4 -232 7 -241 13 -10 126 -41 231 -64 106 -23 274 -41 457
-50 106 -6 197 -12 200 -15 17 -10 1109 -6 1276 5 306 20 624 89 734 160 58
37 59 40 75 107 9 37 23 140 32 228 9 88 18 162 21 164 4 6 62 -14 120 -41 70
-33 171 -131 177 -173 1 -8 9 -22 17 -32 8 -10 29 -47 47 -83 18 -36 52 -84
75 -107 138 -138 216 -173 457 -204 135 -18 168 -28 216 -64 44 -33 64 -64 75
-115 16 -73 89 -209 130 -244 22 -18 39 -38 39 -44 0 -7 3 -12 8 -12 4 0 70
-47 147 -105 128 -95 192 -135 266 -164 23 -8 28 -18 34 -61 9 -65 66 -181
112 -227 49 -49 94 -65 194 -71 106 -6 134 3 247 78 158 105 295 277 317 400
6 34 8 35 53 36 104 2 245 40 322 85 8 5 30 16 49 25 42 19 127 87 302 241
153 134 201 166 276 182 59 12 280 7 362 -9 147 -28 316 2 426 75 60 40 110
81 159 132 44 46 54 52 90 51 35 0 102 -24 168 -59 10 -5 33 -9 51 -9 18 0 58
-4 88 -9 30 -6 81 -12 114 -15 33 -3 74 -10 92 -15 23 -7 33 -6 36 2 2 7 27
13 58 13 52 2 92 6 229 24 79 10 203 39 210 49 9 13 100 29 107 18 3 -5 11 4
18 21 9 21 23 32 43 37 32 7 49 30 29 39 -22 9 167 5 238 -4 262 -37 398 -48
651 -53 93 -2 104 -5 137 -30 20 -15 40 -27 44 -27 5 0 22 -14 39 -31 16 -17
49 -42 74 -57 25 -14 56 -34 69 -44 13 -10 31 -18 41 -18 9 0 37 -13 61 -30
24 -16 53 -30 64 -30 12 0 25 -4 30 -9 6 -5 28 -11 50 -14 22 -3 58 -10 80
-16 135 -38 378 -54 479 -30 129 29 244 78 353 150 73 47 102 47 156 -2 43
-40 128 -96 174 -115 46 -20 273 -67 316 -66 21 1 21 -1 0 -41 -25 -48 -21
-160 7 -220 27 -57 101 -122 166 -144 64 -22 191 -13 262 17 112 48 180 166
170 295 -6 68 6 85 57 85 38 0 268 73 295 94 8 7 31 19 50 29 46 22 66 35 120
77 54 42 130 116 130 127 0 5 11 20 25 35 14 15 37 56 51 90 49 117 54 126 81
144 26 18 50 21 176 23 29 1 40 6 47 24 7 17 9 9 9 -35 1 -48 4 -58 19 -58 9
0 58 -5 107 -10 50 -5 157 -14 240 -20 l149 -10 53 36 c32 22 56 47 60 62 3
14 2 104 -3 201 -9 194 -10 303 -2 341 9 47 19 70 28 65 5 -3 11 -1 15 4 10
17 47 7 58 -16 6 -13 14 -23 18 -23 4 0 19 -20 33 -44 14 -25 32 -51 39 -58 7
-7 23 -27 35 -45 45 -63 147 -173 161 -173 4 0 14 -11 21 -25 7 -13 16 -22 20
-20 4 3 14 -3 21 -12 8 -9 37 -27 64 -40 28 -12 57 -27 65 -32 37 -22 162 -73
167 -67 3 3 15 0 27 -6 11 -7 26 -13 31 -14 6 0 12 -2 15 -3 3 -2 16 -4 30 -6
14 -2 56 -11 94 -19 38 -9 110 -20 160 -25 89 -8 115 -8 246 4 95 9 167 15
238 20 64 5 196 36 229 53 10 6 20 10 23 10 3 1 21 7 40 16 l35 14 3 -117 c3
-115 3 -118 28 -130 35 -16 152 -13 351 8 188 20 194 22 274 98 45 42 46 46
42 91 -5 51 -60 514 -68 574 -5 33 -3 37 27 47 54 19 98 61 124 116 l24 54 0
1473 c0 933 -4 1486 -10 1507 -5 19 -10 51 -11 70 -1 20 -8 58 -16 84 -8 26
-16 58 -18 70 -10 79 -18 123 -22 129 -2 5 -6 18 -8 30 -22 117 -183 281 -375
381 -155 81 -358 91 -525 26 -53 -20 -158 -38 -199 -34 -25 2 -85 18 -133 34
-73 26 -106 31 -193 33 -111 2 -206 -8 -215 -23 -3 -4 -13 -5 -21 -2 -9 3 -32
1 -52 -5 -20 -6 -59 -16 -87 -23 -27 -6 -60 -18 -72 -25 -12 -8 -27 -14 -34
-14 -6 0 -40 -13 -75 -30 -90 -41 -163 -61 -245 -65 -38 -2 -74 -7 -79 -10
-14 -8 -100 83 -100 105 0 37 -74 145 -149 217 -41 40 -78 73 -83 73 -4 0 -26
13 -50 28 -24 16 -70 39 -103 52 -33 13 -73 29 -90 35 -16 7 -58 16 -93 20
-34 4 -65 11 -68 16 -3 5 -58 9 -122 9 -172 0 -201 20 -292 200 -18 36 -41 74
-50 85 -9 11 -23 36 -30 55 -7 19 -17 40 -23 47 -5 7 -16 27 -26 45 -55 104
-94 170 -192 318 -60 91 -117 176 -126 190 -10 14 -33 47 -51 73 l-34 49 21
151 c43 325 54 650 32 952 -7 83 -14 184 -16 225 -2 41 -5 75 -5 75 -1 0 -4
14 -6 30 -3 17 -9 46 -14 65 -10 38 -13 39 -310 114 -97 25 -101 26 -155 31
-27 3 -68 8 -90 11 -22 3 -51 7 -65 9 -14 1 -43 7 -65 13 -43 12 -92 21 -147
26 -19 2 -43 6 -54 10 -11 3 -56 8 -100 11 -114 6 -220 17 -284 30 -14 3 -68
10 -120 15 -52 6 -108 13 -125 16 -16 3 -184 8 -373 11 l-343 5 6 -38 c6 -38
6 -67 1 -109 -1 -11 0 -24 3 -29 2 -6 6 -42 7 -81 2 -40 8 -83 13 -97 5 -14 5
-31 0 -39 -5 -9 -4 -31 1 -50 5 -19 12 -60 15 -93 3 -32 7 -68 10 -80 9 -39
15 -80 21 -136 3 -30 13 -82 21 -115 9 -33 19 -87 22 -120 4 -33 10 -66 14
-73 5 -7 10 -34 12 -60 2 -26 5 -47 5 -47 1 0 3 -14 5 -30 2 -17 11 -56 20
-87 25 -89 10 -160 -30 -137 -21 13 -137 20 -150 9 -7 -6 -20 -8 -29 -4 -13 5
-16 23 -17 103 -1 53 -3 125 -5 161 -3 36 -6 124 -8 195 -2 72 -4 130 -5 130
-7 0 -11 58 -16 215 -3 96 -8 186 -10 199 -2 13 -5 76 -6 140 -2 105 -4 119
-26 144 -12 16 -23 32 -23 35 0 16 -90 51 -170 67 -175 36 -265 44 -527 44
l-263 1 -7 -27 c-10 -38 -9 -667 1 -778 5 -49 8 -96 8 -102 -5 -46 4 -289 13
-360 l8 -63 78 0 c43 0 147 9 231 19 84 10 189 22 233 26 44 3 91 9 104 12
l24 6 -5 -172 c-6 -167 -11 -199 -27 -173 -6 10 -11 10 -21 -3 -7 -8 -16 -15
-21 -15 -15 0 -158 -116 -262 -214 -151 -139 -274 -212 -371 -220 -24 -2 -48
-6 -53 -9 -28 -17 -31 19 -36 448 -5 398 -8 472 -22 513 -2 6 -1 12 3 12 9 0
7 104 -2 119 -4 6 -3 11 3 11 6 0 9 6 6 13 -2 6 -7 107 -10 222 -8 228 -11
319 -19 494 l-5 114 -38 41 c-21 22 -38 42 -38 43 0 4 -306 42 -380 47 -44 3
-111 9 -150 13 -147 16 -599 5 -616 -15 -9 -10 -29 -95 -34 -145 -12 -123 -17
-162 -20 -167 -2 -3 -6 -47 -9 -99 -4 -51 -8 -96 -10 -100 -2 -3 -7 -42 -11
-86 -4 -44 -9 -83 -11 -86 -2 -4 -6 -33 -9 -65 -9 -101 -16 -168 -20 -174 -3
-4 -13 -91 -20 -160 -1 -14 -5 -54 -8 -90 -17 -178 -38 -542 -44 -782 l-6
-228 122 0 c68 0 164 4 214 10 51 5 153 14 227 20 218 18 328 37 400 71 112
52 106 34 99 286 -7 237 -15 321 -31 340 -5 7 -12 31 -14 55 -5 47 -20 83 -46
112 -10 11 -18 23 -18 27 0 4 -53 8 -117 8 -65 0 -131 0 -146 1 l-29 0 3 133
c2 72 6 142 10 153 4 12 10 42 14 65 7 53 32 91 66 99 13 4 49 6 79 5 30 -1
84 -3 120 -4 36 -1 71 -5 78 -10 14 -8 37 -112 46 -203 3 -27 7 -57 10 -66 13
-43 17 -90 22 -272 3 -107 9 -276 13 -375 8 -163 5 -364 -5 -374 -2 -2 -12 -5
-22 -6 -22 -2 -135 -18 -144 -21 -5 -1 -11 -3 -15 -4 -5 -1 -12 -3 -18 -5 -5
-1 -12 -3 -15 -5 -3 -1 -14 -4 -25 -5 -11 -2 -63 -14 -115 -28 -126 -33 -286
-61 -305 -53 -8 3 -15 2 -15 -3 0 -4 -24 -11 -52 -15 -113 -13 -145 -18 -198
-30 -87 -20 -162 0 -196 52 -10 15 -25 34 -34 42 -8 8 -31 39 -49 68 -18 29
-42 59 -53 66 -19 13 -19 21 -9 202 5 104 10 239 11 299 0 61 5 160 10 220 5
61 10 187 11 280 1 94 6 199 10 235 5 36 9 206 10 377 l0 313 -26 44 c-30 51
-62 75 -108 81 -18 3 -43 7 -57 10 -14 3 -52 8 -85 11 -33 3 -63 8 -67 10 -9
6 -248 26 -331 28 -38 1 -75 -3 -82 -8 -9 -7 -16 -39 -20 -81 -3 -38 -7 -81
-10 -95 -2 -14 -6 -54 -10 -90 -11 -115 -14 -134 -30 -210 -3 -14 -7 -65 -10
-115 -5 -86 -7 -112 -18 -180 -3 -16 -8 -57 -12 -90 -3 -33 -11 -77 -16 -98
-11 -43 -14 -72 -25 -229 l-7 -108 64 0 c35 0 143 5 241 11 97 7 187 9 201 5
20 -5 26 -15 36 -63 11 -54 36 -462 28 -469 -1 -2 -12 -1 -23 2 -13 3 -28 26
-43 67 -76 196 -313 271 -456 145 l-45 -40 -53 39 c-28 21 -63 44 -77 51 -14
7 -38 23 -53 36 l-28 22 13 242 c6 133 16 242 20 242 5 0 5 8 0 18 -4 9 -7 37
-5 62 7 98 1 465 -12 700 -5 103 -12 115 -80 141 -16 6 -39 15 -50 20 -11 4
-38 11 -60 14 -22 3 -53 7 -70 10 -58 9 -111 16 -160 21 -27 3 -57 7 -65 10
-45 16 -234 31 -420 34 -96 1 -197 3 -223 4 -27 0 -50 0 -51 -1z m6847 -929
c30 -239 28 -828 -4 -809 -4 3 -54 7 -111 9 -78 2 -129 10 -208 34 -138 39
-222 53 -350 57 l-105 3 -36 169 c-20 92 -47 204 -59 248 -29 104 -36 155 -20
155 6 0 8 5 5 10 -3 6 -1 10 5 10 7 0 10 7 6 15 -3 10 1 15 12 15 10 0 22 4
28 10 17 17 236 68 406 95 141 22 383 46 413 40 6 -1 13 -28 18 -61z"/>
<path d="M11905 12470 c-3 -5 1 -10 10 -10 9 0 13 5 10 10 -3 6 -8 10 -10 10
-2 0 -7 -4 -10 -10z"/>
<path d="M4988 13495 c-2 -3 -54 -7 -114 -10 -94 -5 -228 -16 -244 -20 -3 -1
-36 -5 -75 -9 -96 -10 -154 -26 -165 -46 -14 -26 -48 -162 -55 -221 -3 -30 -8
-61 -10 -69 -12 -41 -35 -425 -41 -652 -4 -205 -3 -258 8 -264 7 -5 156 -13
330 -19 174 -5 319 -12 321 -15 3 -3 -4 -61 -14 -130 -10 -69 -18 -149 -19
-179 l0 -54 93 7 c105 8 214 25 238 37 31 16 93 392 111 674 9 148 9 228 0
360 -7 94 -14 195 -16 225 -2 30 -6 71 -10 90 -3 19 -8 55 -10 80 -3 25 -8 75
-11 112 l-7 67 -52 16 c-52 17 -208 26 -199 13 2 -5 -8 -3 -22 2 -31 12 -30
12 -37 5z"/>
<path d="M9140 12479 c-50 -11 -80 -50 -80 -104 0 -59 15 -95 39 -95 11 0 31
-5 45 -11 34 -16 89 -4 126 27 26 22 30 32 30 76 0 41 -5 54 -29 79 -16 16
-35 29 -43 30 -7 0 -22 2 -33 3 -11 1 -36 -1 -55 -5z"/>
<path d="M14877 5660 c-3 -14 -5 -25 -4 -26 1 0 15 12 30 28 l28 28 -25 -2
c-17 -2 -26 -9 -29 -28z"/>
<path d="M15320 5555 c0 -8 5 -15 10 -15 6 0 10 7 10 15 0 8 -4 15 -10 15 -5
0 -10 -7 -10 -15z"/>
<path d="M15648 5185 c-2 -3 -238 -9 -524 -15 l-519 -10 -23 -27 c-23 -25 -23
-31 -18 -137 8 -142 24 -282 37 -323 12 -37 2 -34 204 -57 413 -48 1108 -43
1475 10 58 9 110 21 117 27 24 23 45 422 24 456 -3 5 -43 26 -88 45 l-82 36
-300 0 c-164 -1 -301 -3 -303 -5z"/>
<path d="M9549 5116 c-2 -2 -269 -6 -594 -10 -324 -3 -663 -9 -753 -12 -146
-6 -164 -9 -173 -26 -19 -35 43 -381 83 -465 13 -27 17 -28 133 -40 66 -6 168
-13 228 -14 100 -2 108 -4 112 -23 15 -66 35 -214 40 -296 10 -144 1 -134 114
-126 53 4 161 11 241 16 80 5 198 15 263 22 l118 12 -7 30 c-3 17 -29 98 -56
179 -47 138 -49 149 -33 161 17 12 173 44 425 87 178 31 166 23 175 119 4 45
4 134 0 197 l-7 115 -72 34 c-59 28 -88 35 -153 39 -44 2 -82 3 -84 1z"/>
</g>
</svg>
